custom-analysis
version=1
nRows=6
nColumns=98
inDegrees=no

This file contains tibia displacement and acting force.

Units are S.I. units (seconds, meters, Newtons, ...)
Angles are in degrees.

endheader
time	APT	SIT	knee_angle	aACL_R_force	pACL_R_force	aPCL_R_force	pPCL_R_force	aMCL_R_force	mMCL_R_force	pMCL_R_force	aLCL_R_force	mLCL_R_force	pLCL_R_force	aPCL_L_force	pPCL_L_force	aMCL_L_force	aLCL_L_force	aACL_R_length	pACL_R_length	aPCL_R_length	pPCL_R_length	aMCL_R_length	mMCL_R_length	pMCL_R_length	aLCL_R_length	mLCL_R_length	pLCL_R_length	aPCL_L_length	pPCL_L_length	aMCL_L_length	aLCL_L_length	aACL_R_strain	pACL_R_strain	aPCL_R_strain	pPCL_R_strain	aMCL_R_strain	mMCL_R_strain	pMCL_R_strain	aLCL_R_strain	mLCL_R_strain	pLCL_R_strain	aPCL_L_strain	pPCL_L_strain	aMCL_L_strain	aLCL_L_strain	femur_lat_meniscii_r.femur_lat_r.force.X	femur_lat_meniscii_r.femur_lat_r.force.Y	femur_lat_meniscii_r.femur_lat_r.force.Z	femur_lat_meniscii_r.femur_lat_r.torque.X	femur_lat_meniscii_r.femur_lat_r.torque.Y	femur_lat_meniscii_r.femur_lat_r.torque.Z	femur_lat_meniscii_r.meniscus_lat_r.force.X	femur_lat_meniscii_r.meniscus_lat_r.force.Y	femur_lat_meniscii_r.meniscus_lat_r.force.Z	femur_lat_meniscii_r.meniscus_lat_r.torque.X	femur_lat_meniscii_r.meniscus_lat_r.torque.Y	femur_lat_meniscii_r.meniscus_lat_r.torque.Z	femur_med_meniscii_r.femur_med_r.force.X	femur_med_meniscii_r.femur_med_r.force.Y	femur_med_meniscii_r.femur_med_r.force.Z	femur_med_meniscii_r.femur_med_r.torque.X	femur_med_meniscii_r.femur_med_r.torque.Y	femur_med_meniscii_r.femur_med_r.torque.Z	femur_med_meniscii_r.meniscus_med_r.force.X	femur_med_meniscii_r.meniscus_med_r.force.Y	femur_med_meniscii_r.meniscus_med_r.force.Z	femur_med_meniscii_r.meniscus_med_r.torque.X	femur_med_meniscii_r.meniscus_med_r.torque.Y	femur_med_meniscii_r.meniscus_med_r.torque.Z	femur_med_tibia_r.tibia_upper_r.force.X	femur_med_tibia_r.tibia_upper_r.force.Y	femur_med_tibia_r.tibia_upper_r.force.Z	femur_med_tibia_r.tibia_upper_r.torque.X	femur_med_tibia_r.tibia_upper_r.torque.Y	femur_med_tibia_r.tibia_upper_r.torque.Z	femur_med_tibia_r.femur_med_r.force.X	femur_med_tibia_r.femur_med_r.force.Y	femur_med_tibia_r.femur_med_r.force.Z	femur_med_tibia_r.femur_med_r.torque.X	femur_med_tibia_r.femur_med_r.torque.Y	femur_med_tibia_r.femur_med_r.torque.Z	femur_lat_tibia_r.tibia_upper_r.force.X	femur_lat_tibia_r.tibia_upper_r.force.Y	femur_lat_tibia_r.tibia_upper_r.force.Z	femur_lat_tibia_r.tibia_upper_r.torque.X	femur_lat_tibia_r.tibia_upper_r.torque.Y	femur_lat_tibia_r.tibia_upper_r.torque.Z	femur_lat_tibia_r.femur_lat_r.force.X	femur_lat_tibia_r.femur_lat_r.force.Y	femur_lat_tibia_r.femur_lat_r.force.Z	femur_lat_tibia_r.femur_lat_r.torque.X	femur_lat_tibia_r.femur_lat_r.torque.Y	femur_lat_tibia_r.femur_lat_r.torque.Z	femur_lat_meniscii_force_r	femur_med_meniscii_force_r	femur_lat_tibia_force_r	femur_med_tibia_force_r
      0.16985853	      0.01463131	      0.01774660	     56.69065187	     12.38501610	    -14.22236990	    228.95593406	    148.85572920	      0.00000000	      0.00000000	      0.00000000	      0.00000000	      0.00000000	      0.00000000	      0.00000000	      0.00000000	      0.00000001	      0.00000000	      0.03291624	      0.02517007	      0.03293058	      0.03087071	      0.05947198	      0.05940079	      0.05665498	      0.05084048	      0.04623760	      0.04114635	      0.01525851	      0.01651186	      0.06550154	      0.04489616	      0.06162591	      0.00444421	      0.05902102	      0.03288657	     -0.00924621	     -0.00656778	     -0.03529864	     -0.09176451	     -0.17899955	     -0.21390466	      0.00000079	     -0.32847694	      0.00000060	     -0.00000086	      4.95840349	     40.44022984	      6.85610737	     -3.75889050	      0.14842699	      1.72659072	     -4.95840349	    -40.44022984	     -6.85610737	      1.18523623	     -0.31154288	      1.09682778	      0.85266287	      0.49533842	     -0.22061685	      0.09730523	     -0.01640278	      0.33968863	     -0.85266287	     -0.49533842	      0.22061685	     -0.01071940	      0.01952732	      0.00197259	   -267.62297124	   -572.85955259	    183.77372020	    -11.88995967	      8.71593744	      9.84799602	    267.62297124	    572.85955259	   -183.77372020	     84.35218882	     -5.18426494	    106.68503914	    -45.78519418	   -332.47404047	    -76.97651315	      9.95754541	     -3.36799729	      8.69733886	     45.78519418	    332.47404047	     76.97651315	    -39.10820379	      1.55736842	     16.46170734	     41.31590690	      1.01047806	    344.32637884	    658.45493541
      0.17044533	      0.01465222	      0.01785135	     56.97849860	     11.94368433	    -13.96287801	    237.16210192	    152.68897993	      0.00000000	      0.00000000	      0.00000000	      0.00000000	      0.00000000	      0.00000000	      0.00000000	      0.00000000	      0.00000001	      0.00000000	      0.03289228	      0.02514940	      0.03297789	      0.03089916	      0.05949193	      0.05939689	      0.05663539	      0.05083082	      0.04621080	      0.04110942	      0.01525851	      0.01651186	      0.06550154	      0.04489616	      0.06085295	      0.00361938	      0.06054260	      0.03383859	     -0.00891383	     -0.00663303	     -0.03563227	     -0.09193707	     -0.17947527	     -0.21461018	      0.00000079	     -0.32847694	      0.00000060	     -0.00000086	      5.07009775	     40.31908574	      6.83704913	     -3.74867644	      0.15031512	      1.76921988	     -5.07009775	    -40.31908574	     -6.83704913	      1.18159776	     -0.31378260	      1.09842061	      0.90235511	      0.50044332	     -0.23146478	      0.10176629	     -0.01737489	      0.35972181	     -0.90235511	     -0.50044332	      0.23146478	     -0.01094777	      0.02065705	      0.00142639	   -278.56010752	   -575.81986909	    185.15054806	    -11.93529383	      8.91893912	      9.76670480	    278.56010752	    575.81986909	   -185.15054806	     84.94976970	     -5.36413166	    111.13949422	    -47.03320698	   -330.20188467	    -76.56760329	      9.88111507	     -3.39672707	      8.64832864	     47.03320698	    330.20188467	     76.56760329	    -38.88403728	      1.58650319	     16.97399330	     41.20776392	      1.05748012	    342.21046897	    665.91664688
      0.17065511	      0.01465985	      0.01788882	     57.08151968	     11.79496277	    -13.86414297	    240.08952873	    154.06464581	      0.00000000	      0.00000000	      0.00000000	      0.00000000	      0.00000000	      0.00000000	      0.00000000	      0.00000000	      0.00000001	      0.00000000	      0.03288381	      0.02514212	      0.03299474	      0.03090926	      0.05949912	      0.05939553	      0.05662843	      0.05082738	      0.04620127	      0.04109631	      0.01525851	      0.01651186	      0.06550154	      0.04489616	      0.06057988	      0.00332903	      0.06108462	      0.03417633	     -0.00879410	     -0.00665580	     -0.03575067	     -0.09199850	     -0.17964464	     -0.21486073	      0.00000079	     -0.32847694	      0.00000060	     -0.00000086	      5.07234031	     40.28458039	      6.84187154	     -3.75016117	      0.15007344	      1.76872462	     -5.07234031	    -40.28458039	     -6.84187154	      1.18094061	     -0.31384797	      1.10030749	      0.92254027	      0.50845707	     -0.23763622	      0.10439493	     -0.01778085	      0.36778443	     -0.92254027	     -0.50845707	      0.23763622	     -0.01116028	      0.02116602	      0.00140984	   -281.85883158	   -576.87316950	    186.04557526	    -11.96293438	      8.99712448	      9.75656985	    281.85883158	    576.87316950	   -186.04557526	     85.33122062	     -5.42370098	    112.47644505	    -47.55901387	   -329.27669932	    -76.40985485	      9.85105981	     -3.40795897	      8.62549268	     47.55901387	    329.27669932	     76.40985485	    -38.79690003	      1.59798108	     17.19079978	     41.17508057	      1.07985190	    341.35534335	    668.46092683
      0.17099145	      0.01467225	      0.01794891	     57.24681306	     11.54166258	    -13.71885119	    244.78585349	    156.30190769	      0.00000000	      0.00000000	      0.00000000	      0.00000000	      0.00000000	      0.00000000	      0.00000000	      0.00000000	      0.00000001	      0.00000000	      0.03287034	      0.02513057	      0.03302171	      0.03092536	      0.05951070	      0.05939338	      0.05661735	      0.05082189	      0.04618602	      0.04107539	      0.01525851	      0.01651186	      0.06550154	      0.04489616	      0.06014548	      0.00286825	      0.06195166	      0.03471523	     -0.00860109	     -0.00669163	     -0.03593941	     -0.09209659	     -0.17991530	     -0.21526043	      0.00000079	     -0.32847694	      0.00000060	     -0.00000086	      5.41343297	     40.13458224	      6.81309493	     -3.73505254	      0.15846479	      1.91011454	     -5.41343297	    -40.13458224	     -6.81309493	      1.17636100	     -0.32262118	      1.08993953	      0.95623978	      0.51166125	     -0.24570885	      0.10771895	     -0.01844229	      0.38135994	     -0.95623978	     -0.51166125	      0.24570885	     -0.01133672	      0.02194967	      0.00104028	   -287.28778826	   -578.36012074	    187.19374901	    -11.99758107	      9.11464343	      9.73153476	    287.28778826	    578.36012074	   -187.19374901	     85.82165691	     -5.51799772	    114.67920034	    -48.88852798	   -327.54237692	    -76.28189982	      9.80059646	     -3.44139694	      8.56667565	     48.88852798	    327.54237692	     76.28189982	    -38.70390129	      1.62800485	     17.74366516	     41.06711836	      1.11200926	    339.84264754	    672.36612215
      0.17125237	      0.01468197	      0.01799553	     57.37514629	     11.33142569	    -13.61909900	    248.43787218	    158.07821343	      0.00000000	      0.00000000	      0.00000000	      0.00000000	      0.00000000	      0.00000000	      0.00000000	      0.00000000	      0.00000001	      0.00000000	      0.03285997	      0.02512171	      0.03304258	      0.03093781	      0.05951974	      0.05939176	      0.05660881	      0.05081765	      0.04617424	      0.04105925	      0.01525851	      0.01651186	      0.06550154	      0.04489616	      0.05981097	      0.00251441	      0.06262302	      0.03513158	     -0.00845047	     -0.00671877	     -0.03608485	     -0.09217233	     -0.18012448	     -0.21556875	      0.00000079	     -0.32847694	      0.00000060	     -0.00000086	      5.70984388	     40.11625737	      6.80020145	     -3.72948633	      0.16640991	      2.03317951	     -5.70984388	    -40.11625737	     -6.80020145	      1.17551194	     -0.33113923	      1.08306918	      0.98422582	      0.51634044	     -0.25266042	      0.11057778	     -0.01899816	      0.39260903	     -0.98422582	     -0.51634044	      0.25266042	     -0.01148127	      0.02261247	      0.00080264	   -291.44718029	   -579.20313933	    188.42009652	    -12.03011027	      9.21484866	      9.70496155	    291.44718029	    579.20313933	   -188.42009652	     86.33747790	     -5.59247232	    116.36845078	    -49.91124502	   -326.17089946	    -76.06091204	      9.75684007	     -3.46367231	      8.52064185	     49.91124502	    326.17089946	     76.06091204	    -38.57997597	      1.65038980	     18.16900111	     41.08721410	      1.13980051	    338.62051086	    675.21838562
      0.17163664	      0.01469640	      0.01806421	     57.56430116	     10.98561832	    -13.50606705	    253.81095145	    160.70452616	      0.00000000	      0.00000000	      0.00000000	      0.00000000	      0.00000000	      0.00000000	      0.00000000	      0.00000000	      0.00000001	      0.00000000	      0.03284478	      0.02510877	      0.03307328	      0.03095607	      0.05953314	      0.05938943	      0.05659633	      0.05081143	      0.04615696	      0.04103563	      0.01525851	      0.01651186	      0.06550154	      0.04489616	      0.05932118	      0.00199791	      0.06361021	      0.03574266	     -0.00822730	     -0.00675772	     -0.03629742	     -0.09228338	     -0.18043136	     -0.21602005	      0.00000079	     -0.32847694	      0.00000060	     -0.00000086	      5.76319661	     40.05631196	      6.81709373	     -3.73534041	      0.16745120	      2.05273413	     -5.76319661	    -40.05631196	     -6.81709373	      1.17432449	     -0.33302800	      1.08526499	      1.02462460	      0.53658982	     -0.26348943	      0.11526459	     -0.01978814	      0.40867909	     -1.02462460	     -0.53658982	      0.26348943	     -0.01191236	      0.02357585	      0.00093764	   -297.25407237	   -580.61071119	    189.61208036	    -12.06177564	      9.34196269	      9.68067374	    297.25407237	    580.61071119	   -189.61208036	     86.84325933	     -5.69470417	    118.72221009	    -50.87521189	   -323.94517466	    -75.85881806	      9.69176848	     -3.48707034	      8.46312393	     50.87521189	    323.94517466	     75.85881806	    -38.44511081	      1.67233420	     18.57008660	     41.03894894	      1.18625920	    336.57588097	    679.28015024
